<?xml version="1.0" encoding="utf-8"?>
<!-- Generator: Adobe Illustrator 24.2.3, SVG Export Plug-In . SVG Version: 6.00 Build 0)  -->
<svg version="1.1" id="Capa_1" xmlns="http://www.w3.org/2000/svg" xmlns:xlink="http://www.w3.org/1999/xlink" x="0px" y="0px"
	 viewBox="0 0 300 1100" style="enable-background:new 0 0 300 1100;" xml:space="preserve">
<style type="text/css">
	.st0{fill:#EF4141;}
</style>
<path class="st0" d="M245,884.6c-2,0.3-4.2,0.3-6,1.1c-10.6,4.8-20.2,4.6-28.1-4.4c-3.6,1.4-7,2.7-10.8,4.2
	c8.8,3.5,16.7,7.7,16.8,18.1c-2.4-9.3-9.2-14.2-18.8-16.3c1.6,1.2,3.2,2.5,4.6,3.5c-1,1.4-1.7,2.4-2.7,3.8c-1.1-0.7-3.1-1.4-3.6-2.6
	c-2.2-4.6-6.4-4.7-10.9-5.4c-7-1.1-13.9-2.9-20.3-4.3c4.7,3.7,8.3,9.1,5.4,16.1c-3.2,7.8-10.6,7.6-18.9,6.9c0,11.2,0,22.1,0,33
	c0.4,0,0.8,0.1,1.2,0.2c0.3-1.6,0.6-3.2,0.9-4.8c0.3-0.1,0.6-0.2,0.9-0.3c0.5,1.7,1,3.5,1.5,5.2c0.5,2,1,3.9,1.5,5.9
	c0.5-0.1,1-0.2,1.5-0.2c0.1-2.1,0.2-4.1,0.3-6.2c0.3-0.1,0.6-0.3,0.9-0.4c1.6,3.1,3.3,6.2,4.9,9.3c0.5-0.1,1-0.2,1.5-0.3
	c-0.4-2.2-0.9-4.4-1.5-7.3c3.1,2.1,5.7,3.9,8.3,5.7c0.3-0.3,0.7-0.7,1-1c-1.2-1.3-2.3-2.6-4.2-4.7c3.3,0.8,5.6,1.4,8,1.9
	c0.2-0.3,0.3-0.5,0.5-0.8c-0.9-0.9-1.8-1.8-3-2.9c1.6-0.6,3-1.1,4.7-1.6c-1.1-1.2-2.3-2-2.7-3.1c-0.3-0.8,0.2-2,0.4-3.1
	c1.2,0.3,2.7,0.2,3.6,0.8c3.5,2.6,5.7,5.3,3.3,10c-1.5,2.9-0.7,6.8-5.4,7.8c1,1.7,2.1,3.5,2.8,4.8c-4.6-1-10-0.6-15.7-0.1
	c-4.2,0.3-9.4-2.8-13.2-5.4c-2.8-1.9-4.4-5.6-5.9-8.7c-1-2.2-0.9-4.8-1.3-6.9c-5.8,7.3-12,14.9-18.3,22.7c6.1,1.8,9.6,5.8,10.2,12.4
	c8.8-1.8,16.8-0.3,23.5,4.7c6.3,4.7,12,10,19.2,16c-6.5,3-11.8,5.5-17.4,8.1c1.9,5.9,1.5,13.3-4.1,16.6c-4.3,2.5-12,2.1-16.9-2.8
	c-2.3,3.4-4.6,6.6-6.8,9.9c-2.4,3.6-5.3,3.9-8.7,1.1c-1.4-1.1-2.9-2-3.4-2.4c-4.7,3.8-9,7.3-14.4,11.6c-3.7-5.2-6.7-9.5-9.9-14.1
	c-4.8,0.9-10.7,2-17,3.2c-0.8-3.4-1.6-6.6-2.6-10.5c-6.9,6.5-13.8,12.3-23.7,9.1c4.4-0.9,9.6-1.2,13.9-3.1c4.4-2,9.2-4.7,9.3-10.8
	c-2.2,0.4-4.1,1.4-5.6,1c-4.3-1.2-9.6-2-12.1-4.8c-1.5-1.7,1.3-6.9,2.5-10.4c0.4-1.1,1.6-2,2.6-3.2c-2.8-1-5.4-2-8.9-3.2
	c2.3-4.4,4.4-8.5,6.8-13.2c-7.3-2.1-12-7.1-15.3-15c5.9-2.5,11.7-5,17.8-7.6c-0.8-1.5-2.2-3.6-3.3-5.8c-1.1-2.3-2.1-4.6-3.1-6.8
	c13.1-7.8,31.8-3.2,39.8,9c1.7,2.6,5.3,4,8.4,6.3c5.7-1.9,11.8-2.6,16.7,3.6c14.4-13.7,24.2-28.8,22.6-48.6
	c-0.2-1.9-2.1-3.7-3.3-5.6c-9.9,5.6-14.7,4.9-20.9-3.2c-3.1,3.2-6.2,6.4-9.3,9.6c-3.2-2.8-6.1-5.4-8.9-8c-7.1,5.6-8.8,6-21.5,4.8
	c-2.1-8.8-3.5-17.5,5-25c-1.9-0.6-3.7-0.6-4.7-1.5c-2-1.7-5-3.7-5.1-5.8c-0.3-4.6,0.2-9.1-0.3-13.8s4.4-6.3,8.8-3.9
	c3.6,1.9,7.5,3.7,11.5,4.5c5.1,1,7-1,6.2-5.7c-0.3-1.7-0.7-3.5-1.8-4.8c-3.3-4.2-4.7-8.3-1.4-13.1c0.4-0.6-0.2-2-0.7-2.8
	c-3.7-6.3-7.4-12.5-10.9-18.4c-2.3,3.5-5.1,7.8-8,12c-2.4,3.4-5.7,3.9-9.7,2.4c-1.2-0.5-2.7-0.7-3.8-0.4c-5,1.3-8.8-0.8-10.3-5.7
	c-0.5-1.5-1.6-3.1-3-3.9c-3.6-2.1-4.2-4.7-2.6-8c0.5-1,2.1-1.9,1.9-2.6c-1.6-7.5,4.2-9,9.7-10.7c1.3-0.4,3,0.1,4.4,0.2
	c-0.6,1.1-1.2,2.2-1.9,3.2c-0.9,1.1-2.1,2-3.1,3c-1.2-0.5-2.3-0.9-4.5-1.8c1.9,3.2,3.2,5.5,4.8,8.2c-2.1,0-3.3,0-4.5,0
	c-0.2,0.4-0.3,0.8-0.5,1.2c2.6,1.1,5.1,2.2,8.1,3.4c-1.1,1-2.1,1.8-3,2.6c0.1,0.4,0.2,0.7,0.4,1.1c2.8-0.4,5.6-0.7,8.9-1.2
	c-0.8,1.6-1.5,2.9-2.1,4.2c0.3,0.3,0.6,0.6,0.9,0.9c2.2-1.7,4.4-3.4,7.2-5.6c-0.5,1.7-0.8,2.8-1.1,3.9c0.4,0.2,0.8,0.4,1.2,0.6
	c1.3-1.8,2.5-3.5,3.7-5.2c1-0.1,3,0,3.1-0.5c1.1-3.5,2.7-7.1,2.5-10.6c-0.7-12.4,1.8-23.7,9.8-33.9c0.7-0.9,1.3-2,2.4-3.9
	c-7,1.3-13,2.4-19.6,3.7c-0.8-3.4-1.6-6.6-2.5-10.5c-7.1,6.6-13.9,12.2-24.1,8.7c12.9,0.1,23.8-6,23.2-13.5
	c-1.8,0.3-3.7,1.3-5.2,0.9c-4.3-1.2-9.6-2-12.1-4.8c-1.5-1.7,1.4-6.9,2.5-10.4c0.4-1.1,1.6-2,2.6-3.2c-2.8-1-5.4-2-8.6-3.1
	c1-2.3,1.8-4.5,2.8-6.5c1.1-2.1,2.4-4.1,4-6.7c-7.6-2.3-12.4-7.2-15.6-15.1c5.9-2.5,11.7-5,17.6-7.5c-1.9-3.7-4.2-8.2-6.4-12.6
	c13.5-7.9,32-3.4,40,8.9c1.7,2.6,5.3,4,8.2,6.1c10-1.9,11.1-1.7,17.1,3.5c14.2-13.5,24-28.6,22.3-48.4c-0.2-1.9-2.1-3.7-3.3-5.6
	c-9.9,5.6-14.7,4.8-20.9-3.2c-3,3.2-6,6.3-9.2,9.6c-2.8-2.8-5.6-5.4-8.9-8.6c-5.7,7.2-13.5,6.2-21.6,5.5c-2.2-8.9-3.5-17.6,3.8-24
	c-3.1-2.6-6-4.8-8.6-7.4c-0.7-0.7-0.7-2.6-0.3-3.6c1.2-3,1.1-5.6,0-8.8c-0.6-1.8,0.8-5.1,2.5-6.4c1.2-0.9,4.4,0.1,6.6,0.7
	c3.8,1.2,7.3,3.3,11.2,4c5.1,1,6.9-1,6.2-5.8c-0.2-1.5-0.6-3.2-1.5-4.4c-3.4-4.3-5.1-8.5-1.6-13.4c0.4-0.5-0.1-1.7-0.5-2.4
	c-3.8-6.4-7.6-12.8-11.2-18.8c-2.4,3.6-5.1,7.9-8,12c-2.4,3.5-5.8,3.9-9.7,2.3c-1.2-0.5-2.7-0.7-3.8-0.4c-4.7,1.3-8.8-0.6-9.9-5.3
	c-0.5-2.3-1.1-3.7-3.7-4.8c-3.7-1.5-3.7-4.5-2.3-7.6c0.5-1,2.1-1.9,1.9-2.6c-1.7-7.5,4.3-9,9.7-10.7c1.3-0.4,3,0.1,4.4,0.2
	c-0.6,1.1-1.1,2.2-1.9,3.2c-0.9,1.1-2.1,2-3.1,3c-1.2-0.5-2.3-0.9-4.5-1.7c1.9,3.2,3.2,5.5,4.8,8.2c-2.1,0-3.3,0-4.5,0
	c-0.2,0.4-0.3,0.8-0.5,1.2c2.6,1.1,5.1,2.2,9,3.8c-1.8,0.7-3.1,1.2-4.3,1.7c0.3,0.5,0.5,1,0.8,1.5c2.7-0.3,5.5-0.6,8.7-1
	c-0.7,1.5-1.3,2.8-1.9,4.1c0.3,0.3,0.5,0.6,0.8,0.9c2.2-1.7,4.4-3.3,7.1-5.4c-0.4,1.6-0.7,2.7-1,3.7c0.4,0.2,0.8,0.4,1.1,0.6
	c1.3-1.7,2.5-3.5,4-5.4c0.6,0,2.7,0.3,2.9,0c1.2-3.3,3-6.8,2.7-10.1c-0.9-12.9,1.6-24.7,10.2-35.1c0.6-0.8,0.8-1.8,1.3-3.1
	c-6.6,1.2-12.6,2.3-19,3.5c-0.8-3.5-1.6-6.7-2.5-10.6c-6.9,6.7-13.9,12.2-24.2,8.6c9.1,1.1,16.4-1.9,22-8.4c1.1-1.2,1.4-3,1.6-4.9
	c-6.6,2.7-11.7-0.2-16.7-2.8c-0.8-0.4-1.6-2.1-1.3-2.9c1.2-4,2.8-7.9,4.4-12.3c-1.7-0.6-4.4-1.6-7.7-2.9c2.4-4.5,4.5-8.6,6.9-13.1
	c-7.2-2.4-12.1-7.1-15.3-15c5.7-2.5,11.5-5,17.6-7.6c-1.9-3.7-4.2-8.3-6.4-12.8c12.2-5.8,28.9-3.9,36.4,3.9c3.8,3.9,7.4,8,10.9,11.7
	c9.8-2.5,11.7-2.2,18.3,3c13.8-13.1,23.5-27.9,22.2-47.1c-0.2-2.4-2-4.6-3.2-7.1c-9.1,6.2-14.2,5.4-21.2-2.7c-3,3.1-6,6.3-8.8,9.1
	c-3.2-2.6-6.3-5-9.3-7.5c-7.8,5.5-10.9,6.2-21.6,4.5c-2.1-8.8-3.4-17.4,5-24.7c-1.8-0.5-3.3-0.8-4.6-1.5c-1.6-0.8-4.1-1.9-4.2-3.1
	c-0.6-6.3-1.2-12.8-0.4-19.1c0.3-2.8,3.9-3.7,7.4-1.8c3.7,2,7.7,4,11.9,4.8c5.3,1.1,7.2-1,6.3-6.1c-0.3-1.7-0.8-3.5-1.9-4.8
	c-3.8-4.6-4.2-9.1-1-13.1c-4.2-7.5-8-14.6-11.6-21.1c-2.7,4-5.6,8.4-8.6,12.9c-0.2,0.3-0.4,0.6-0.7,0.7c-2.3,0.6-5.3,2.2-7,1.4
	c-5.3-2.4-15.1,2.8-15.8-7.7c-0.1-0.9-1.3-1.8-2.2-2.5c-1-0.8-2.8-1.3-3-2.3c-0.6-1.8-1.3-4.8-0.3-5.6c3.9-3.6-0.8-12.1,8.4-12.4
	c1.3,0,2.5-1.4,3.8-1.7c1.2-0.2,2.5,0.3,3.7,0.5c-0.4,1-0.5,2.4-1.2,2.9c-2.1,1.3-3.5,5.1-7.6,2.5c1.3,2.3,2.7,4.6,4.2,7.2
	c-2,0.1-3.3,0.2-4.7,0.3c-0.1,0.4-0.2,0.8-0.4,1.2c2.7,1.1,5.3,2.2,8.3,3.4c-1.3,1-2.2,1.7-3.2,2.4c0.1,0.4,0.2,0.8,0.3,1.2
	c2.9-0.3,5.8-0.7,9-1.1c-0.9,1.6-1.6,2.8-2.2,4c0.3,0.3,0.6,0.7,0.9,1c2.2-1.7,4.3-3.3,7-5.4c-0.4,1.5-0.6,2.6-0.8,3.6
	c0.3,0.2,0.7,0.5,1,0.7c1.3-1.7,2.5-3.4,3.8-5.1c0.2,0.2,0.3,0.4,0.5,0.6c1.1-1,2.6-1.8,3.3-3.1c3.6-6.4,1-13.4,2.2-20.1
	c1.5-8.2,4-15.9,9.6-22.5c0.5-0.6,1-1.2,1.3-1.9c0.2-0.4-0.1-0.9-0.1-1.6c-6.1,1.1-12.1,2.3-18.5,3.5c-0.8-3.5-1.6-6.6-2.4-10
	c-4,2.8-7.5,5.6-11.4,7.8c-4.1,2.3-8.7,1.8-13,0.3c12.9,0.2,23.8-5.8,23.5-13.6c-6.8,2.8-12.3-0.2-17.7-3.3
	c1.3-4.7,2.5-9.4,3.9-14.6c-1.3-0.5-4-1.5-7.3-2.8c2.4-4.5,4.6-8.6,6.7-12.8c-9.2-4.8-11.2-6.7-15.2-15.3c5.8-2.5,11.6-5,17.6-7.6
	c-1.9-3.8-4.2-8.3-6.7-13.3c11-3.4,21.1-4.4,31.1,0.5c2.1,1,4,2.4,5.6,4c3.8,3.9,7.4,8,11.2,12c7-2.9,12.9-2.7,17.7,3
	c13.3-12.8,23.1-26.7,22.5-45.1c-0.1-3.1-1.7-6.1-2.8-9.7c-9.5,6.5-14.5,5.8-21.6-2.3c-3,3.1-6,6.3-8.7,9c-3.3-2.6-6.3-5.1-9.6-7.7
	c-5.4,6.5-13.1,5.7-21.2,4.9c-2.3-8.9-3.5-17.5,4-24.3c-2.9-2.1-7.6-3.7-8.2-6.2c-1.4-5.6-1.3-11.6-0.7-17.3
	c0.4-3.6,4.6-4.2,8.4-2.2c3.5,1.8,7.2,3.6,11,4.4c5.7,1.2,7.8-0.9,6.6-6.1c-0.5-2.2-1.8-4.4-3.1-6.3c-2.1-3.2-2.3-6.4-0.8-9.9
	c0.5-1.3,0.5-3.2-0.1-4.4c-3.4-6.2-7.1-12.3-10.5-18.1c-2.2,3.4-5.1,7.4-7.6,11.5c-2.1,3.3-6,4.5-10,2.9c-1.2-0.5-2.7-0.8-3.9-0.5
	c-4.6,1.2-8.2-0.1-9.6-4.3c-0.9-2.7-1.2-5.5-4.9-6.1c-0.4-0.1-1-0.6-1-1c-0.4-1.8-1.5-4.5-0.7-5.2c4.1-3.6-0.1-10.9,6.9-12.9
	c2-0.6,3.8-1.6,5.8-2c1.1-0.2,2.4,0.4,3.7,0.6c-0.5,1-0.7,2.1-1.4,2.9c-1.1,1.2-2.4,2.1-3.8,3.3c-1-0.4-2.1-0.8-4.2-1.7
	c1.8,3.2,3.2,5.5,4.8,8.2c-2,0-3.3,0-4.5,0c-0.2,0.4-0.4,0.8-0.5,1.2c2.5,1.1,5.1,2.2,8,3.5c-1.1,0.9-2,1.8-3.7,3.3
	c2.4,0.1,3.8,0.4,5.2,0.2c1.4-0.2,2.7-0.8,5.1-1.5c-1.1,2.2-1.7,3.5-2.3,4.8c0.3,0.3,0.6,0.6,0.9,0.9c2.1-1.6,4.2-3.3,6.6-5.2
	c-0.1,1.3-0.3,2.4-0.4,3.5c0.3,0.2,0.6,0.4,1,0.6c1.3-1.7,2.5-3.5,4-5.4c0.6,0,2.8,0.2,2.8,0c1.1-3.6,2.7-7.4,2.6-11.1
	c-0.6-12.3,2-23.6,9.9-33.6c0.5,0.1,1.1,0.2,1.6,0.3c-0.3,1.7-0.4,3.5-1,5.2c-2.1,6.6-4.8,13-6.5,19.7c-1.4,5.5,1.8,8.1,8,7.4
	c7.7-0.8,11.3,1.4,13.6,8.1c-11.2,1.9-12.7,1.5-20.8-4.5c-0.5,0.2-0.9,0.4-1.4,0.5c3.8,8.2,7.5,16.4,11.4,25c8-4,12.9-0.6,17.9,3.2
	c2.4,1.8,5.7,2.6,8.5,3.9c1-2.9,2.3-5.8,2.8-8.8c0.4-2.7-0.3-5.6-0.1-8.4c0.3-3.5,2.1-6.9,6.1-7c2.5-0.1,5.1,2.1,7.4,3.7
	c10.5-2.3,15.1,1.5,13.6,11.4c5.7,1.1,11.4,2.2,17.3,3.3c-0.9,7.2-3.1,12.2-10,14.4c3.3,3.8,6.4,7.5,9.8,11.5
	c-3.9,1.3-7.5,2.6-10.7,3.6c2.1,3.3,5.1,6.2,5.4,9.3c0.3,3-2.1,6.3-3.6,10.1c4.6,2.3,10,5.3,16.6,3.3c2-0.6,4.1-1.7,5.5-3.1
	c2.7-2.5,2.3-7.1-0.2-8.9c-2.8-2-5.3-1.2-9,2.8c0-1.1-0.5-2.5,0.1-3.3c1.4-1.8,3.1-4.5,4.9-4.6c6.9-0.4,7-0.1,10.5,5.3
	c0.7,1,0.9,2.9,0.3,3.9c-1.6,2.5-3.7,4.7-5.6,7c-0.2,0.2-0.2,0.6-0.5,1.3c6.5-0.7,12.8-1.1,17.5-6c7.7-7.9,8.5-18.3,1.6-25.4
	c-4,8.5-6.7,16.8-1.5,25.5c-4.6-2.3-5.4-6.4-5.1-10.5c0.4-6.9,2.6-13.2,9.1-18.1c-1.2-1.8-2.5-3.5-3.9-5.5c3.2-4.2,7.4-6.5,13.4-6.4
	c4.2,0,7.6-1.6,7.3-6.5c0,1.6,0,3.1,0,4.4c6.1,4.6,15.9,1.3,19.1,8.3c3.8,0.7,6.7,1.3,9.5,1.8c0,10.1,0,20.1,0,30.2
	c-3.6,4.8-4.7,11.4-11.4,13.9c-1-2.3-1.8-4.4-2.7-6.5c1.5,1.3,3,2.7,4.7,4.2c1.3-1.5,2.9-2.8,3.7-4.4c0.8-1.5,1.5-4.4,0.8-4.8
	c-3.3-2.2-7-5-10.6-5.2c-2.4-0.1-5,4.1-7.7,6.5c3.8,1.5,6.6,2.7,9.4,3.8c-1.7,0.5-3.6,0.7-5.2,1.5c-10.8,5.1-20.8,5.1-28.9-4.1
	c-3.6,1.4-7,2.7-10.8,4.2c9.2,3.4,16.8,7.8,16.8,18.1c-2.3-9.3-9.1-14.3-18.7-16.4c1.6,1.3,3.2,2.5,4.4,3.5c-1,1.5-1.6,2.6-2.5,4
	c-1.3-0.9-3.2-1.6-3.8-2.9c-2.1-4.4-6.1-5-10.5-5.1c-7.1-0.1-13.7-1.7-19.7-5.3c-0.4-0.3-1.1-0.1-2.9-0.2
	c7.5,4.9,10.3,10.7,7.2,17.7c-3.3,7.3-10.7,7.1-18.6,6.3c0,11.3,0,22.2,0,33.1c0.4,0,0.9,0,1.3,0.1c0.3-1.7,0.6-3.4,0.9-5.1
	c0.4,0,0.8-0.1,1.1-0.1c0.9,3.8,1.8,7.5,2.7,11.3c0.5-0.1,1-0.2,1.5-0.2c0-2.1,0-4.1,0-6.2c0.4-0.1,0.8-0.3,1.2-0.4
	c1.7,3.1,3.4,6.3,5.1,9.4c0.5-0.2,1-0.4,1.4-0.5c-0.5-2.2-1-4.3-1.7-7.2c3.1,2.1,5.8,3.9,8.4,5.7c0.3-0.3,0.6-0.6,0.9-1
	c-1.1-1.3-2.3-2.7-3.9-4.6c3.1,0.7,5.4,1.2,7.8,1.7c0.1-0.3,0.2-0.7,0.4-1c-1-0.8-1.9-1.7-3-2.6c1.9-0.7,3.3-1.2,4.2-1.5
	c-1-1.8-1.8-3.2-2.3-4.6c-0.2-0.5,0.9-1.8,1-1.8c1.4,0.6,3,1,4.2,1.9c4.6,3.8,3.8,13-1.4,15.9c-3.1,1.7-3,3,0.1,4.5
	c0.7,0.3,1.3,0.8,1.8,1.1c-4.4-0.4-10-2.5-13-0.8c-7.5,4.3-10.2-4.6-16.1-3.9c-0.5,0.1-1-4.1-2.4-5.1c-4.4-3.1-5.9-6.9-4.8-11.7
	c-6.2,7.8-12.4,15.5-18.9,23.5c7,1.5,9.6,6.1,10.5,12c19.9-3.2,29.9,9.7,42.1,21.3c-6.1,2.8-11.5,5.2-17,7.7c2,5.2,0.8,10.3-2.2,15
	c-0.6,1-2.1,2.1-3.3,2.1c-5.5,0.2-11.2,1.1-15.6-3.6c-1.4,2.4-2.5,4.5-3.8,6.5c-5.4,8.2-6.2,8.3-14.5,2.5c-0.5-0.3-1.1-0.6-0.3-0.2
	c-4.9,3.9-9.3,7.3-13.8,10.9c-3.1-3.1-5.5-5.4-8.8-8.8c-2.6,8-5.4,15.1-7.2,22.5c-1.7,7.3,0.8,9.3,8.9,8.5
	c6.7-0.7,11.2,2.6,12.2,8.8c-8.3,2.8-14.9,0.1-21.3-6.1c2,10.2,5.7,18.6,11.9,26.2c6.2-3.3,10.9-0.8,15.4,2.6c1,0.8,1.8,2.1,2.9,2.6
	c2.1,1,4.6,2.4,6.7,2.2c1.2-0.1,2.6-3.2,2.8-5c0.4-3.6-0.2-7.2,0-10.8c0.2-3.8,1.5-7.7,6.1-8.1c2.6-0.2,5.4,2.1,7.3,2.9
	c4.3,0.8,9.2,0.4,11.5,2.4c2.5,2.2,2.5,6.8,3.7,10.6c5.5-1.4,11,0.1,15.9,3.8c-0.8,6-3.3,10.8-9.9,12.9c3.3,3.9,6.4,7.6,9.7,11.5
	c-4,1.3-7.7,2.5-10.6,3.5c2.1,3.4,5.1,6.3,5.4,9.4c0.3,3-2.2,6.3-3.7,10.2c3.1,1,7,3.3,10.9,3.4c3.8,0.1,8.2-1.6,11.4-3.6
	c1.5-1,1.4-4.9,0.9-7.3c-0.2-1-3.4-2.3-4.9-2.1c-1.7,0.3-3.1,2.2-4.7,3.4c-0.4-0.2-0.8-0.3-1.2-0.5c1.3-2.5,1.9-6.1,4-7.1
	c2.4-1.2,6.1-0.2,9.3,0c0.3,0,0.6,0.7,0.8,1.1c0.8,1.3,1.8,2.5,2.1,3.9c0.4,1.4,0.7,3.2,0.1,4.3c-1.6,2.6-3.7,5-6.2,8.1
	c6.8-1.1,13.2-1.2,17.8-6.2c7.7-7.9,8.5-18.3,1.6-25.4c-4,8.5-6.7,16.8-1.5,25.5c-1.5-1.8-3.7-3.4-4.2-5.4c-2.5-9,0.9-16.5,8.1-23.4
	c-1.1-1.6-2.4-3.5-4.4-6.4c4.2-1.9,8-4.7,12.1-5.2c5-0.6,9-0.7,9.5-6.5c0,1.7,0,3.3,0,4.5c6.3,4.4,15.9,1.5,18.9,8
	c3.9,0.8,6.7,1.4,9.4,1.9c0,10.1,0,20.1,0,30.2c-3.6,4.8-4.7,11.4-11.4,13.9c-1-2.2-1.8-4.3-2.8-6.5c1.4,1.4,2.9,2.7,4.6,4.3
	c1.4-1.6,3-2.9,3.8-4.5c0.8-1.5,1.5-4.4,0.8-4.8c-3.3-2.2-7-5-10.7-5.1c-2.4-0.1-5,4.1-7.7,6.5c3.8,1.5,6.6,2.7,9.4,3.8
	c-1.7,0.5-3.6,0.7-5.2,1.5c-10.8,5.1-20.8,5.1-28.9-4.1c-3.6,1.4-7,2.7-10.8,4.2c9.2,3.5,16.6,7.9,16.9,18
	c-2.4-9.2-9-14.3-18.7-16.3c1.6,1.3,3.2,2.5,4.5,3.5c-1,1.5-1.7,2.6-2.6,3.9c-1.2-0.9-3.1-1.5-3.7-2.8c-2.1-4.4-6.2-4.6-10.5-5.2
	c-5.8-0.9-11.4-2.4-17.1-3.8c-1.4-0.4-2.7-1.2-4-1.9c-0.3,0.3-0.6,0.6-0.9,0.8c7,4.3,9.6,10.2,6.6,17.2c-3.3,7.3-10.7,7.1-18.6,6.3
	c0,11.3,0,22.2,0,33.1c0.4,0,0.9,0,1.3,0.1c0.3-1.7,0.6-3.4,0.9-5.1c0.4,0,0.8-0.1,1.1-0.1c0.9,3.8,1.8,7.5,2.7,11.3
	c0.5-0.1,1-0.2,1.6-0.2c0-2.1,0-4.1,0-6.2c0.4-0.1,0.8-0.3,1.2-0.4c1.7,3.1,3.4,6.3,5.1,9.4c0.5-0.2,1-0.4,1.4-0.6
	c-0.5-2.2-1-4.3-1.7-7.1c3.1,2.1,5.8,3.9,8.4,5.7c0.3-0.3,0.6-0.7,0.9-1c-1.2-1.3-2.4-2.6-4.5-4.9c3.6,0.9,5.9,1.5,8.3,2.2
	c0.4-0.5,0.7-1,1.1-1.5c-1.3-0.5-2.6-1.1-4.3-1.8c2.4-1,3.9-1.7,4.9-2.1c-1-1.7-1.9-2.9-2.3-4.2c-0.2-0.6,0.7-1.5,1.1-2.2
	c1.3,0.6,2.7,1,3.8,1.9c4.9,4.1,4.2,13-1.4,16.1c-3,1.7-2.6,2.9,0,4.3c0.8,0.4,1.5,0.8,3.3,1.8c-6.6-1.4-11.9-0.9-17.4-0.6
	c-4.4,0.3-11.5-2.4-13.2-5.6c-2.7-5.1-10.3-8.6-6.4-16.6c-6.9,8.6-13,16.2-19.3,24c6.4,1.8,9.7,6,10.2,12.2
	c20.1-3.3,30.1,9.6,42.1,21.3c-6.3,2.8-11.7,5.2-17.1,7.6c1.7,5.3,0.1,16-3.3,16.7c-6,1.2-12.5,1.9-17.7-3.1c-1,1.9-1.9,3.6-2.9,5.2
	c-5.7,9.4-6.9,9.6-16.1,3.3c-0.2-0.2-0.6-0.1-1-0.1c0.3,0.3,0.5,0.6,0.8,0.8c-4.3,3.4-8.6,6.9-13.2,10.5c-3.1-3.1-5.5-5.4-8.2-8.1
	c-2,4.4-4.1,8.4-5.7,12.7c-1.1,2.9-1.7,6.1-2.3,9.2c-1.3,7.4,0.9,9.4,9,8.5c6.7-0.7,11.2,2.5,12.4,9.6c-3.6-0.1-7.3,0.4-10.5-0.5
	c-3.7-1-7.1-3.3-10.7-5c1.8,8.9,5.4,17.2,11.6,24.9c5.5-3.1,10-1.3,14.3,1.7c1.3,0.9,2.3,2.4,3.7,3.2c2.2,1.2,4.8,2.6,7.1,2.5
	c1.2-0.1,2.6-3.5,2.9-5.5c0.4-3.1-0.3-6.3-0.2-9.4c0.1-3.9,0.9-8.2,5.7-8.9c2.7-0.4,5.7,1.8,8.6,2.9c9.9-1.6,13.7,1.5,13.3,11.9
	c5.8,1.2,11.4,2.4,16.9,3.6c-0.7,7.4-3.5,12-9.8,14.4c3.3,4,6.4,7.6,9.6,11.3c-4,1.4-7.7,2.6-11.8,4c8.8,6.5,9.2,10.9,2,18.4
	c6.6,3.3,13,6.9,20.3,2.7c2.3-1.3,3.7-4.5,4.4-7.1c0.3-1.2-2.2-4.2-3.4-4.2c-2.3,0-4.7,1.5-7.9,2.8c1.2-2.5,1.8-6.2,3.8-7
	c2.7-1.1,6.4-0.1,9.7,0.1c0.1,0,0.2,0.2,0.3,0.4c1.4,3.9,5.6,7.6,0.3,11.7c-1.5,1.2-2.3,3.1-3.7,5c6.7-0.9,12.9-1.3,17.5-6
	c7.7-8.2,8.4-18.4,1.8-25.2c-5.3,8.4-5.7,15.1-1.8,25.3c-5.3-3.1-5.8-7.9-5-12.9c1-6,3.1-11.8,9-15.9c-1.5-2-2.7-3.7-4.9-6.6
	c4.5-1.9,8.5-4.7,12.8-5.2c5-0.5,8.5-1.2,9.1-6.5c0,1.7,0,3.3,0,4.4c6.3,4.5,15.9,1.5,18.9,8c4,0.8,6.7,1.4,9.4,1.9
	c0,10.1,0,20.1,0,30.2c-3.6,4.8-4.7,11.4-11.4,13.9c-1-2.2-1.9-4.3-2.8-6.4c1.4,1.4,2.9,2.7,4.5,4.3c1.4-1.6,3-2.9,3.8-4.5
	c0.8-1.5,1.5-4.4,0.8-4.8c-3.3-2.2-7-5-10.6-5.1c-2.4-0.1-5,4.1-7.7,6.5c3.8,1.6,6.6,2.7,9.4,3.8c-1.7,0.5-3.6,0.7-5.2,1.4
	c-10.8,5.1-20.8,5.1-28.9-4.1c-3.7,1.4-7,2.7-10.7,4.2c9,3.5,16.7,7.8,16.7,18.1c-2.3-9.3-9-14.3-18.6-16.3c1.5,1.2,3.1,2.3,4.4,3.4
	c-0.9,1.4-1.7,2.6-2.6,4c-1.2-0.8-3.1-1.4-3.6-2.5c-2.3-5.1-7.1-4.8-11.8-5.6c-6-1-11.9-3.1-17.8-4.7c-0.8-0.2-1.6-0.4-2.4-0.5
	c6.1,4.6,8.6,10.2,6.1,16.9c-3,8.1-10.8,7.7-19,7.2c0,11.3,0,22.1,0,33c0.5,0,0.9,0.1,1.4,0.2c0.3-1.7,0.6-3.5,1-5.2
	c0.4,0,0.7,0,1.1,0c0.9,3.7,1.9,7.5,2.8,11.2c0.5-0.1,1.1-0.2,1.6-0.3c0-2.1,0-4.1,0-6.2c0.3-0.1,0.7-0.2,1.1-0.3
	c1.7,3.1,3.4,6.2,5.1,9.3c0.5-0.2,1-0.4,1.5-0.6c-0.6-2.1-1.1-4.2-1.9-7.1c3.3,2.3,5.9,4,8.5,5.8c0.3-0.3,0.6-0.7,0.9-1
	c-1.2-1.3-2.4-2.6-4.3-4.8c3.4,0.8,5.8,1.4,8.1,2c0.2-0.3,0.3-0.7,0.5-1c-1-0.8-2-1.7-3-2.6c1.8-0.7,3.3-1.3,4.1-1.7
	c-1-1.7-1.8-2.7-2.2-3.9c-0.2-0.7,0.5-1.6,0.8-2.4c1.3,0.5,2.9,0.7,3.9,1.5c5.3,4.2,4.6,13.1-1.3,16.4c-2.4,1.4-2.8,2.6-0.3,4.1
	c0.9,0.5,1.8,0.9,4,2c-7-1.5-12.4-1.1-18.2-0.6c-4.2,0.4-11-2.4-12.7-5.6c-2.7-5.1-10.4-8.6-7.2-15.7c-6.1,7.6-12.2,15.2-18.6,23.2
	c6.9,1.4,9.7,6.2,10.5,11.9c20.1-2.8,30.1,9.9,42.1,21.5c-6.3,2.8-11.7,5.2-17.1,7.6c2.5,6,1.5,13-3.2,16.1
	c-4.9,3.3-12.5,2.2-18-2.4c-1.2,2.1-2,3.8-3,5.4c-5.7,9.1-6.7,9.3-15.8,2.9c-0.2-0.2-0.6-0.1,0.5,0c-5.1,4.1-9.4,7.5-14,11.2
	c-3.1-3-5.5-5.4-8.2-8.1c-1.9,4.2-4,8.1-5.5,12.1c-1.2,3.2-1.9,6.7-2.5,10.1c-1.2,6.7,1.3,9,8.6,8.2c7.1-0.8,11.4,2.1,12.9,8.7
	c-8.3,3-15,0.2-21.4-6.1c2.2,10.3,5.7,18.7,12.2,25.3c3.8-0.2,7.5-0.4,10.6,0.8c2.8,1.1,5.1,3.5,7.5,5.5c4.8,4,8.4,3.1,9.4-2.8
	c0.6-3.8-0.1-7.8,0.1-11.7c0.2-3.7,1.9-7.3,6.2-7.5c2.5-0.1,5.1,2,7.8,3.2c3.5,0.6,8.4,0.2,10.7,2.2c2.5,2.2,2.6,6.7,3.9,10.7
	c5.3-1.6,10.8,0.2,16.2,4c-1.1,2.7-1.8,5.6-3.5,7.8c-1.6,2.2-4.2,3.6-6.4,5.4c3,3.6,6,7.1,9.3,10.9c-3.9,1.3-7.6,2.5-11.5,3.8
	c8.6,7.7,8.8,10.7,1.7,18.7c6.6,3.3,13.1,6.8,20.3,2.6c2.2-1.3,3.6-4.6,4.3-7.2c0.3-1.2-2.2-4.1-3.5-4.2c-2.3,0-4.6,1.6-7.9,2.9
	c1.2-2.5,1.8-6.1,3.9-7.2c2.4-1.2,6.1-0.3,9.3-0.2c0.2,0,0.5,0.4,0.6,0.7c1.4,3.9,5.7,7.6,0.3,11.7c-1.5,1.2-2.3,3.1-3.7,5
	c6.7-0.9,12.9-1.3,17.5-5.9c7.7-8.3,8.4-18.4,1.6-25.5c-4,8.5-6.7,16.8-1.5,25.6c-5.3-3.1-5.8-8-5-12.9c1-6,3-11.9,9-15.9
	c-1.5-2-2.7-3.7-4.9-6.6c4.5-1.9,8.5-4.8,12.7-5.2c5-0.5,8.6-1,9.1-6.5c0,1.7,0,3.3,0,4.5c6.4,4.4,15.9,1.5,18.9,7.9
	c4,0.9,6.7,1.4,9.4,2c0,10.1,0,20.1,0,30.2c-2.2,3.5-4.2,7-6.6,10.3c-1.1,1.5-2.8,2.5-4.5,3.9c-1.1-2.3-2.1-4.2-3-6.1
	c1.5,1.1,2.9,2.2,5.1,3.8c1.7-3,5.1-6.6,4.3-8.4c-1.3-2.8-5.3-5.2-8.7-6.2c-5.4-1.6-6.2,4.2-10,6.2
	C239.2,881.7,242.1,883.1,245,884.6z M100.7,952.9c2.3-0.7,4.6-1.3,6.9-2c0-0.6,0.1-1.1,0.1-1.7c-2.8-1.1-5.6-2.2-8.4-3.4
	c-0.4,0.4-0.8,0.8-1.2,1.2c0.9,2,1.9,4,2.8,5.9c-1.1-0.8-2-1.8-3.2-2.4c-1.1-0.6-2.5-0.6-3.7-0.9c3.9-2.6,3.2-5.2,0.1-8
	c-6.4-5.8-18.1-7.6-26.6-3.9c4.3,8.2,10.2,14.7,20.4,16.5c1.1,0.2,2.5-0.8,3.7-1.3c1.6,0.7,3.2,2,4.9,2
	C97.8,955,99.3,953.7,100.7,952.9z M100.8,702.7c2.3-0.6,4.6-1.3,6.9-1.9c0-0.6,0.1-1.1,0.1-1.6c-2.8-1.1-5.6-2.3-8.4-3.4
	c-0.4,0.4-0.9,0.8-1.3,1.2c1,2,1.9,3.9,2.9,5.9c-1.1-0.8-2-1.8-3.2-2.4c-1.1-0.6-2.5-0.7-3.7-1c4-2.6,3.1-5.3,0.1-8
	c-6.4-5.8-18.2-7.6-26.7-3.8c4.6,8,10.3,14.7,20.5,16.4c1.1,0.2,2.4-0.8,3.7-1.3c1.5,0.7,2.9,1.5,4.4,2.1
	C98.3,705.8,100.1,705.4,100.8,702.7z M100.8,202.2c2.3-0.6,4.6-1.2,6.8-1.8c0-0.6,0.1-1.2,0.1-1.7c-2.8-1.1-5.6-2.3-8.4-3.4
	c-0.4,0.4-0.9,0.8-1.3,1.2c1,1.9,1.9,3.9,2.9,5.8c-1.1-0.8-2.1-1.8-3.3-2.5c-1-0.6-2.3-0.8-3.5-1.2c3.7-2.3,3-4.7,0.3-7.4
	c-6.2-6.1-18.4-8.1-26.6-4.4c2.8,8.2,11.3,15.5,20.1,16.7c1.1,0.1,2.4-0.9,3.6-1.4c1.5,0.7,2.9,1.5,4.4,2.1
	C98.3,205.3,100.2,205,100.8,202.2z M100.8,452.5c2.3-0.6,4.6-1.2,6.9-1.9c0-0.6,0.1-1.1,0.1-1.7c-2.8-1.1-5.6-2.3-8.4-3.4
	c-0.4,0.4-0.9,0.8-1.3,1.2c1,1.9,1.9,3.9,2.9,5.8c-1.1-0.8-2.1-1.8-3.3-2.4c-1.2-0.6-2.5-0.7-3.8-1.1c3.8-2.3,3.5-4.8,0.5-7.6
	c-6.3-6-18.4-8-26.9-4.1c4.4,8.2,10.2,14.7,20.4,16.4c1.1,0.2,2.4-0.9,3.6-1.4c1.6,0.8,3.3,2.1,4.9,2.1
	C97.8,454.6,99.3,453.2,100.8,452.5z M137.5,974.7c-4.3-0.1-2.7,2.3-1.4,3.6c1.6,1.7,3.8,2.9,5.7,4.3c-3.5,0.6-0.7,1.8-0.1,2.4
	c7.2,7.1,20.4,8.1,31.2,2.2c-7-8.4-14.6-15.6-26.9-16.6c2.9,2.2,6.5,3.3,9.3,5.5c2.9,2.3,5,5.6,7.9,8.9c-6,2.3-10.7,3-15.3-0.2
	c4,0.4,8,2.7,12.7-0.7c-2.6-2.8-4.7-5.8-7.6-8c-2.8-2.1-6.3-3.8-9.8-0.6c-2-0.3-3.9-0.6-5.9-0.9c2.6-0.4,5.3-0.8,7.9-1.2
	c0.1-0.5,0.2-1,0.2-1.5c-2-1.4-3.9-2.7-6.2-4.3c-1.2,2.4,1.5,6.1-3.9,4.8C136.4,973.5,137,974.1,137.5,974.7z M137,724.3
	c-3.9,0.3-2.1,2.6-1.1,3.7c1.4,1.6,3.5,2.6,5.3,3.9c0.1,1-0.2,2.3,0.4,2.9c7.2,7.2,20.3,8.2,31.2,2.3c-6.9-8.5-14.7-15.6-27-16.7
	c6.2,4.1,14.4,6.3,16.2,14.9c-4.8,1.8-9.5,2.6-14.1-0.7c4,0.4,8,2.8,11.9-0.2c-3.4-7.6-8.4-11.1-14.9-10.4c0.5-4.2-2.5-5.1-5.6-5.9
	c-1.7,1.2,1.6,5-3,4C136.6,722.8,136.8,723.5,137,724.3z M137,223.8c-3.9,0.3-2.1,2.6-1.1,3.7c1.4,1.6,3.5,2.6,5.3,3.9
	c-0.1,0.7-0.7,1.8-0.3,2.2c6.6,7.8,22.9,9.3,31.7,2.7c-6.9-8.2-14.6-15.4-26.8-16.4c6.5,3.8,14.3,6.4,16.2,14.4
	c-4.7,2.5-7.7,2.6-12,0.3c3.3,0,6.5,0,10.2,0c-3.8-8.4-8.6-11.7-15.2-11.2c0.4-4.1-2.5-5-4.3-5.5c-2,1.7-3.2,2.6-4.1,3.7
	C136.2,222.1,136.8,223.1,137,223.8z M137,474.1c-3.9,0.3-2.1,2.6-1.1,3.7c1.4,1.6,3.5,2.6,5.3,3.9c0,0.9-0.5,2,0,2.5
	c7,7.6,22.5,8.7,31.4,2.3c-6.9-8.3-14.6-15.4-26.8-16.4c6.4,4,14.5,6.4,16.2,14.9c-4.1,1.5-8,2.5-12,0c3.2,0,6.4,0,9.9,0
	c-2.6-7.9-8.2-11.9-14.9-11.3c0.5-4.1-2.5-5-4.3-5.5c-1.9,1.7-3.2,2.6-4.1,3.7C136.2,472.3,136.8,473.3,137,474.1z M123.8,230.6
	c0.8-3,1.5-6.1,2.3-9.3c-2.4-0.4-4-0.7-5.5-0.9c-3.7,4.1-0.8,7.7,0.4,11.4c-0.6-0.2-1.3-0.5-1.9-0.7c-0.7-2.5-1.4-5-2.1-7.5
	c-6.2,3.5-7.1,5.9-3.9,11.6c1.6-0.9,3.1-1.8,4.6-2.7c-6.2,11.6,0.3,26.8,13.9,32.7c12.2-14.3,10.4-28.2,0.2-35.2
	c0.2,2.4,0.3,4.3,0.4,6.3c-0.9,0.3-1.8,0.8-2.7,0.8c-0.8,0-1.7-0.6-2.5-0.9c5.1-2.5,5.2-6,0.1-10.7
	C126,227.1,124.9,228.9,123.8,230.6z M123.8,731c0.4-1.3,0.7-2.7,1.2-4c1.8-5,1.4-5.5-4.6-6.1c-3.5,3.9-0.5,7.6,0.6,11.3
	c-0.6-0.2-1.3-0.5-1.9-0.7c-0.7-2.5-1.4-5.1-2.2-7.7c-6.2,4.1-6.6,5-4.2,11.9c1.7-1,3.4-1.9,5-2.8c-6.3,11.5,0.3,27,13.9,32.7
	c12.1-14.2,10.4-28.3,0.1-35.2c0.2,2.4,0.3,4.3,0.5,6.3c-0.8,0.2-1.6,0.5-2.4,0.4c-1,0-2-0.3-3-0.5c5.3-2.3,5.4-6,0.3-10.7
	C126,727.6,124.9,729.3,123.8,731z M123.8,480.8c0.8-3,1.5-6.1,2.3-9.3c-2.4-0.4-4-0.7-5.5-0.9c-3.7,4.1-0.7,7.7,0.4,11.4
	c-0.6-0.2-1.3-0.5-1.9-0.7c-0.7-2.5-1.4-5-2.1-7.5c-6.3,3.6-6.7,4.4-4.4,11.7c1.8-1,3.4-1.9,5.1-2.8c-6.2,11.5,0.3,26.9,13.9,32.7
	c12.1-14.3,10.4-28.2,0.2-35.2c0.2,2.4,0.3,4.3,0.4,6.3c-0.9,0.3-1.8,0.8-2.7,0.8c-0.8,0-1.7-0.5-2.5-0.8c5.2-2.5,5.2-6.1,0.1-10.7
	C126,477.4,124.9,479.1,123.8,480.8z M123.8,981.2c0.4-1.3,0.7-2.7,1.2-4c1.8-5,1.4-5.6-4.6-6.1c-3.5,3.9-0.5,7.6,0.6,11.3
	c-0.6-0.3-1.3-0.5-1.9-0.8c-0.7-2.5-1.5-5.1-2.2-7.6c-6.2,4-6.6,5-4.2,11.8c1.7-1,3.4-1.9,5-2.8c-6.3,11.4,0.4,27.1,14,32.6
	c12-14.3,10.3-28.3,0.1-35.2c0.2,2.4,0.3,4.3,0.5,6.3c-0.8,0.1-1.6,0.4-2.4,0.4c-1,0-2-0.3-3-0.5c5.3-2.4,5.4-6,0.3-10.7
	C126,977.8,124.9,979.5,123.8,981.2z M93.2,464.2c4.8,1.8,8,0.1,10.6-3.8c-6.5-2.2-5.5-2.3-11.4,2.7c0.3-1,0.6-1.9,1-3
	c-10.3,0.5-26,10.1-27.1,19.4c10.2,4.4,28.7,0,34.4-8.3c-0.3,1.8-0.7,3.5-1.1,5.8c2.4-0.4,4.1-0.6,5.9-0.9c-1.2,0.8-2.5,1.7-3.7,2.5
	c-1.1,0-2.5-0.3-3.3,0.2c-12.5,8-16.4,20-11.2,33.8c13.6,0.8,25.4-10.1,22.6-20.4c-4.3,2.5-8.8,5.1-13.4,7.7
	c-2.9-6-2.3-11.8,1.4-16.5c-1.2,4.6-3.8,9.1-0.9,14.2c1.2-0.4,2.5-0.6,3.3-1.2c3.4-2.4,7.3-4.6,9.9-7.7c1.3-1.5-0.1-4.9-0.1-7.4
	c0-1.4,0.2-2.7,0.4-3.9c-0.9-0.5-1.7-0.9-2.6-1.3c4.6-0.3,7.9-2.3,9.8-6.6c-1.6-1.1-3.1-2.3-6-4.4c-1.4,4.3-2.6,7.7-3.7,11.1
	c-0.8,0-1.7,0-2.5,0c0.9-2.5,1.9-5,3.2-8.6c-3.2,1.2-5,1.8-6.8,2.5c-1-0.2-2.3-0.7-3.1-0.4c-1.7,0.7-3.2,2-4.8,3
	c1.8-2,3.6-3.9,5.5-6C96.6,465.6,94.9,464.9,93.2,464.2z M92.8,213.7c4.8,2.5,8,0.4,10.9-3.1c-5-3.9-8.1-0.6-11.4,2.3
	c0.3-1,0.6-1.9,0.9-3c-10.8,0.6-26.2,10.6-27.1,19.4c10.3,4.4,28.8-0.1,34.4-8.3c-0.3,1.8-0.7,3.5-1.1,5.8c2.4-0.4,4.1-0.6,5.8-0.9
	c-1.2,0.9-2.5,1.7-3.7,2.6c-1-0.1-2.3-0.6-3-0.1c-12.5,7.2-17.1,21.1-11.4,34.2c13.8,0.3,24.6-9.7,22.6-20.5
	c-4.4,2.5-9,5.1-14.4,8.1c-1-6.8-2.1-12.1,2.3-16.9c-1.1,4.6-3.7,9.1-0.9,14.2c1.2-0.4,2.5-0.6,3.3-1.2c3.4-2.4,7.3-4.6,9.9-7.7
	c1.3-1.5-0.1-4.9-0.1-7.4c0-1.4,0.2-2.7,0.4-3.9c-0.9-0.5-1.7-0.9-2.6-1.3c4.6-0.3,7.9-2.3,9.8-6.6c-1.6-1.1-3.1-2.2-6-4.3
	c-1.4,4.3-2.5,7.7-3.7,11c-0.8,0-1.7,0-2.5,0c0.9-2.5,1.9-5,3.2-8.6c-3.2,1.1-5,1.8-6.8,2.4c-1-0.2-2.2-0.9-2.9-0.6
	c-1.6,0.7-3,1.9-4.5,2.9c1.6-1.9,3.2-3.8,4.8-5.6C96.4,215.4,94.6,214.5,92.8,213.7z M92.9,714.1c4.8,2.4,8.1,0.3,10.9-3.2
	c-5-3.7-8.2-0.6-11.4,2.4c0.3-1,0.6-2,0.9-3c-10.6,0.4-26.2,10.5-27.1,19.3c10.2,4.4,28.6,0,34.5-8.3c-0.3,1.7-0.7,3.5-1.1,5.5
	c1.6,0.1,2.9,0.1,4.1,0.2c-0.7,0.6-1.4,1.2-2,1.8c-1-0.1-2.3-0.6-3-0.2c-12.5,7.2-17.1,21.1-11.5,34.2c13.9,0.3,24.6-9.7,22.6-20.5
	c-4.4,2.5-9,5.1-13.8,7.7c-2.5-6.8-1.9-12,1.6-16.5c-1.2,4.6-3.7,9.1-0.9,14.2c1.4-0.5,2.7-0.7,3.8-1.4c3.3-2.3,7.1-4.4,9.4-7.5
	c1.3-1.6,0-4.9-0.1-7.4c0-1.4,0.2-2.7,0.4-4c-0.8-0.4-1.7-0.8-2.6-1.2c4.5-0.4,7.9-2.3,9.7-6.7c-1.6-1.2-3.1-2.3-6-4.3
	c-1.4,4.4-2.5,7.8-3.6,11.2c-0.8,0-1.5-0.1-2.3-0.1c0.8-2.5,1.6-5,2.8-8.5c-3.1,1.1-4.8,1.8-6.6,2.5c-1.1-0.2-2.3-0.7-3.1-0.4
	c-1.7,0.7-3.2,2-4.8,3c1.8-1.9,3.6-3.9,5.5-5.9C96.5,715.8,94.7,715,92.9,714.1z M93.3,964.7c4.7,1.8,7.9,0,10.4-3.6
	c-5-3.7-8.2-0.6-11.3,2.5c0.3-1.1,0.5-2.1,0.9-3.6c-12.6,3.1-22.7,8.1-27.6,19.7c10.7,4.6,29.3,0.1,34.9-8.2
	c-0.3,1.8-0.7,3.5-1.1,5.6c1.6,0.1,2.9,0.2,4.1,0.2c-0.7,0.6-1.3,1.2-2,1.7c-1.1,0-2.6-0.3-3.4,0.2c-12.5,8-16.4,19.9-11.2,33.8
	c13.7,0.8,25.3-10,22.6-20.4c-4.3,2.5-8.8,5.1-14,8.1c-1.5-6.6-2.5-12,2-16.8c-1.2,4.6-3.7,9.1-0.9,14.2c1.4-0.5,2.7-0.7,3.8-1.4
	c3.3-2.3,7.1-4.4,9.4-7.5c1.3-1.6,0-4.9-0.1-7.4c0-1.4,0.2-2.7,0.4-4c-0.8-0.4-1.7-0.8-2.6-1.2c4.5-0.4,7.9-2.3,9.7-6.7
	c-1.6-1.2-3.1-2.3-6-4.3c-1.4,4.4-2.5,7.8-3.6,11.2c-0.8,0-1.6,0-2.4,0c0.8-2.5,1.7-5,2.9-8.7c-3.1,1.2-4.8,1.9-6.6,2.6
	c-1-0.3-2.1-1.1-2.8-0.8c-1.4,0.6-2.6,1.7-3.9,2.6c1.3-1.8,2.7-3.6,4-5.4C96.7,966,95,965.4,93.3,964.7z M135.7,887.1
	c-2.5-0.6-4.9-1.2-7.5-1.9c-0.6,1.9-1,3.2-1.4,4.6c-2.2,6.8,2.7,12.5,10.1,11.1c2.9-0.5,5.4-2.6,8.2-4c5.8,7.1,14.6,9.3,20.2,4.8
	c6.3-4.9,4.9-12-3.9-20.3c8.6-4.4,11.5-8.5,9.1-13c-2.8-5.3-7.4-6.2-14.5-3.3c-1.5,5.6-2.5,10.9-4.4,15.8c-1.5,3.7-5.1,5.6-9.4,4.2
	C139.1,884.1,137.3,884.9,135.7,887.1C135.6,887.1,135.7,887.1,135.7,887.1z M161.3,380.9c8.5-4.1,11.5-8.4,9.1-12.9
	c-2.8-5.3-7.1-6.1-14.6-3.4c-1.5,5.6-2.3,10.8-4.3,15.7c-0.8,2-4,4.2-6.4,4.5c-5.5,0.7-11.2,0.2-16.7,0.2c-3.7,8.4-3.5,11,1,13.9
	c4.7,3.1,9.4,2.2,15.1-2.8c6.6,7.5,15.2,9.6,20.8,5.1C171.5,396.2,170.1,389.3,161.3,380.9z M155.9,114.2
	c-1.5,5.8-2.4,11.1-4.4,15.9c-0.8,2-4,4.2-6.4,4.5c-5.5,0.7-11.2,0.2-16.7,0.2c-3.7,8.6-3.4,11.1,1.1,14c4.8,3.1,9.3,2.2,15.2-2.9
	c6.4,7.5,15.4,9.9,20.6,5c2.1-1.9,4.2-5.5,3.6-7.8c-1.1-4.5-4.1-8.6-6.4-13c7-3.3,10.1-7.5,8.1-11.9
	C168.3,113,164.2,112,155.9,114.2z M144.6,646.3c6.6,7.5,15.5,9.9,20.6,5c2.1-2,4.2-5.8,3.6-8.2c-1.1-4.4-4.2-8.3-6.5-12.5
	c7.4-3.6,10.4-7.9,8-12.4c-2.7-5.3-7.2-6.1-14.6-3.3c-1.5,5.6-2.3,10.8-4.4,15.7c-0.8,2-4,4.2-6.4,4.5c-5.5,0.7-11.2,0.2-16.7,0.2
	c-3.7,8.4-3.5,11,1,13.9C134.2,652.3,138.8,651.4,144.6,646.3z M114.3,652.8c14.4-11.4,14.8-29.5,7.4-43.7c-0.5-1-2.7-1.4-4.2-1.7
	c-0.3,0-1.4,1.9-1.4,2.9c-0.5,7-3.2,13-7.9,18.4c-1.2,1.4-2.1,3.2-2.5,5C103.5,641.9,108.2,647.5,114.3,652.8z M114.4,903.1
	c13.7-11.2,15.1-28.5,7.4-43.5c-0.5-1.1-2.6-1.5-4-2.2c-0.6,1.1-1.7,2.2-1.8,3.3c-0.6,6.8-3.3,12.7-7.7,18c-1.4,1.6-2.4,3.8-2.9,5.8
	C103.7,892.6,108.5,897.9,114.4,903.1z M114.4,402.7c13.9-11.6,14.9-28.9,7.3-43.5c-0.5-1.1-2.6-1.4-4-2.1c-0.6,1.1-1.6,2.2-1.7,3.4
	c-0.6,6.8-3.3,12.7-7.7,18c-1.3,1.5-2.3,3.5-2.7,5.4C103.6,391.9,108.3,397.4,114.4,402.7z M114.3,152.4
	c14.5-11.5,14.7-29.6,7.3-43.7c-0.5-1-2.7-1.4-4.2-1.6c-0.3,0-1.3,1.9-1.4,2.9c-0.5,7-3.2,13-7.9,18.4c-1.2,1.4-2.1,3.2-2.5,5
	C103.5,141.5,108.2,147.1,114.3,152.4z M174.8,856.9c-3.7-3.8-6.4-7.5-10.1-10c-2.5-1.7-7.1-3.3-9.4-2.4c-6.6,2.8-13.1,3.5-20.2,2.5
	c-1.5-0.2-3.2,0.7-4.8,1.2c0.5,1.6,0.5,3.5,1.6,4.6c6.9,7.9,15.6,11.3,26.4,8.8C163.5,860.4,168.6,858.7,174.8,856.9z M174.8,606.8
	c-3.7-3.8-6.4-7.5-10.1-10.1c-2.5-1.7-7.1-3.3-9.4-2.4c-6.6,2.8-13.1,3.5-20.2,2.5c-1.5-0.2-3.2,0.7-4.8,1.2
	c0.5,1.6,0.5,3.5,1.6,4.6c6.8,7.9,15.6,11.3,26.4,8.8C163.5,610.2,168.6,608.5,174.8,606.8z M92.3,621.8c-0.1,0.5-0.2,1.9-0.3,2.8
	c3.1,1.4,5.6,2.7,9.4,4.4c6.6-1.5,14.1-12.2,12.6-20c-0.5-2.5-4.3-4.7-6.2-3.3c-5,3.7-10.2,3.1-15.8,1.4c-2.7-0.8-5.6-1-8.5-1.4
	c-0.2,0.4-0.4,0.9-0.6,1.3c1.4,1.8,2.9,3.6,3.9,5c-1.4,2-2.7,3.9-4,5.7C85.9,619,88.9,620.3,92.3,621.8z M174.8,106.4
	c-3.7-3.8-6.4-7.5-10.1-10.1c-2.5-1.7-7.1-3.4-9.4-2.4c-6.6,2.8-13.1,3.6-20.2,2.5c-1.5-0.2-3.2,0.7-4.9,1.1
	c0.5,1.6,0.5,3.5,1.5,4.6c6.2,7.3,14.3,11,24.4,9.2C162.3,110.3,168.1,108.2,174.8,106.4z M87,362c-1.7,1.8-3.2,3.6-5.7,6.3
	c4.6,1.1,7.8,1.9,11.2,2.7c-0.2,1-0.4,2.4-0.6,3.5c2.9,1.3,5.4,2.4,8,3.6c7.9-0.2,16.9-12.8,13.9-19.7c-0.7-1.6-2.6-5.2-6-2.7
	c-5.1,3.7-10.2,3-15.8,1.3c-2.7-0.8-5.6-0.9-8.4-1.3c-0.2,0.5-0.4,0.9-0.6,1.4C84.3,358.7,85.7,360.3,87,362z M98.8,129.1
	c9.1-1.7,17-13,15.1-20.7c-0.6-2.5-4.4-4.3-6.3-2.9c-4.9,3.6-9.9,3-15.3,1.3c-2.8-0.8-5.8-1-8.8-1.5c-0.2,0.5-0.4,1-0.6,1.5
	c1.4,1.7,2.8,3.4,4.1,4.9c-1.6,1.7-3.2,3.5-5.8,6.3c4.7,1.1,7.9,1.8,11.2,2.6c-0.2,1.2-0.4,2.5-0.6,3.6
	C93.9,126.8,99.3,123.6,98.8,129.1z M86.8,862.2c-1.4,2-2.7,3.9-4,5.8c3,1.3,6.1,2.6,9.5,4c-0.1,0.5-0.2,1.9-0.4,3.8
	c2.5,0.2,4.6,0.3,6.7,0.5c0.1,1.1,0.3,2.2,0.4,3.6c9.4-1.7,12.2-8.1,14.3-15.1c1.2-4,1.3-7.7-1.6-8.8c-6.2,1.1-10.5,2.5-14.8,2.4
	c-4.4-0.1-8.8-1.7-13.2-2.7c-0.3,0.5-0.5,1-0.8,1.5C84.2,859,85.6,860.7,86.8,862.2z M174.8,356.5c-3.7-3.8-6.4-7.5-10.1-10
	c-2.5-1.7-7.1-3.4-9.4-2.4c-6.6,2.8-13.1,3.5-20.2,2.5c-1.5-0.2-3.2,0.7-4.9,1.2c0.5,1.6,0.5,3.5,1.5,4.6
	c6.8,7.9,15.6,11.3,26.4,8.8C163.5,360,168.6,358.3,174.8,356.5z M159.1,835.5c-1.8-0.8-3.2-1.4-4.2-1.9c0.6-2.4,1.2-4.7,1.8-7.4
	c-2.7,0.2-4.6,0.4-6.2,0.5c-0.4-1.8-0.8-3.4-1.2-5.2c-2.1,0.8-3.6,1.4-5.1,2c-0.8-2.2-1.4-4.2-2.2-6.5c-4.5,2.5-5.3,5.8-4.9,9.6
	c0.6,6.1-1,11.2-7.2,14.1c3.1,7.2,9.2,5.5,14.9,4.5C150.9,844.1,155.5,840.9,159.1,835.5z M156.8,75.4c-2.8,0.3-4.6,0.5-6.4,0.7
	c-0.3-1.7-0.7-3.3-1.1-5.2c-2.1,0.7-3.7,1.3-5.2,1.8c-0.7-2.2-1.4-4.1-2.1-6.3c-4.8,2.3-5.4,5.8-5,9.8c0.5,5.9-1,10.9-7.2,13.8
	c3,6.9,8.9,5.6,14.7,4.5c6.3-1.2,11-4.3,14.4-9.7c-1.7-0.8-3-1.5-4.1-2.1C155.5,80.4,156.1,78.3,156.8,75.4z M154.9,333.2
	c0.6-2.5,1.1-4.7,1.8-7.4c-2.7,0.2-4.5,0.4-6.2,0.6c-0.4-1.8-0.8-3.4-1.2-5.2c-2.1,0.8-3.6,1.4-5.1,2c-0.8-2.2-1.4-4.2-2.2-6.5
	c-4.4,2.5-5.3,5.8-4.9,9.6c0.5,6-1,11.2-7.2,14.1c3.1,7,9.2,5.6,14.9,4.5c6.2-1.2,10.9-4.4,14.3-9.7
	C157.3,334.2,156,333.7,154.9,333.2z M142,566.9c-4.7,2.4-5.3,5.9-5,9.9c0.5,5.8-1.1,10.9-7.2,13.7c1.7,5,5.9,5.7,10.6,5.3
	c7.8-0.8,14.4-3.5,18.5-10.5c-1.7-0.8-3-1.4-4.1-1.8c0.6-2.4,1.2-4.6,1.8-7.4c-2.7,0.2-4.5,0.4-6.2,0.5c-0.4-1.8-0.8-3.4-1.2-5.2
	c-2.1,0.8-3.6,1.4-5.1,2C143.5,571.1,142.8,569.1,142,566.9z M86.4,650.5c4.9-0.6,9.4-0.7,13.4-1.9c2-0.6,4.3-3.2,4.5-5.1
	c0.4-3.6-0.7-7.4-1-10.1c-4.5-1.1-9.1-2.2-14.4-3.5C82.8,635.2,85.3,642.5,86.4,650.5z M86.3,400.2c4.8-0.6,9.2-0.7,13.3-1.8
	c2-0.6,4.6-2.9,4.8-4.6c0.3-3.9-0.8-7.9-1.1-10.5c-4.7-1.2-9.1-2.3-14.4-3.7C82.7,384.7,85.3,392.1,86.3,400.2z M88.7,129.5
	c-5.9,5.3-3.4,12.7-2.2,20.5c4.8-0.6,9.3-0.7,13.3-1.9c2-0.6,4.3-3.2,4.5-5.1c0.4-3.7-0.7-7.4-1-10.2
	C99.1,131.9,94.6,130.9,88.7,129.5z M89,880.2c-4.5,3.8-5.6,11.4-1.8,20.4c4.1-0.6,8.6-0.7,12.6-1.9c1.9-0.6,4.4-3,4.6-4.7
	c0.3-3.8-0.8-7.7-1.2-10.5C99,882.5,94.6,881.5,89,880.2z M257,612c-0.7-2.7-1.4-5.5-1.9-7.5c0.6-2.8,1.1-5,1.6-7.1
	c-2.4-0.5-4.9-0.9-7.3-1.4c0,0.3,0,0.6,0,0.9c-1.7-1.7-3.3-3.4-4.6-4.7c-1.9,3.5-3.7,6.4-5.1,9.5c-0.4,0.9,0.1,2.2,0.2,3.3
	c0.9-0.6,1.9-1,2.6-1.7c0.6-0.6,0.8-1.5,1.2-2.3c0.2,0.1,0.4,0.1,0.6,0.2c-0.1,1.5-0.3,2.9-0.5,4.4c1.3,0.6,2.6,1.1,3.2,1.4
	c-1.3,1.6-2.4,3-4.1,5.1C248.2,612,251.8,612,257,612z M242.5,361.9c5.8,0,9.7,0,14.7,0c-0.9-3-1.7-5.8-2.5-8.7c1.2-1.9,2.6-5,1.5-6
	c-1.2-1.3-4.5-0.8-7.7-1.3c-0.8-0.8-2.4-2.6-3.9-4.1c-1.6,3.2-2.8,5.8-4,8.4c-0.5,1.2-1,2.4-1.2,3.7c-0.1,0.3,0.9,0.7,1.3,1.1
	c0.8-1.2,1.6-2.4,2.4-3.6c0.2-0.2,0.5-0.4,1.3-0.9c-0.2,1.8-0.3,3.2-0.5,4.8c1.3,0.5,2.6,1,3.5,1.3
	C246,358.2,244.7,359.5,242.5,361.9z M247.3,857.1c-1.4,1.6-2.7,3-4.6,5.2c5.4,0,9.3,0,14.4,0c-0.8-2.9-1.6-5.7-2.4-8.5
	c0.2,0.1,0.4,0.2,0.6,0.3c0.4-2.2,0.8-4.3,1.2-6.5c-2.5-0.4-4.9-0.8-7.1-1.1c-1.4-1.6-3-3.3-4.6-5.1c-1.8,4.1-3,6.4-4,8.8
	c-0.6,1.5-1.1,3-1.5,4.5c0,0.1,1.4,0.8,1.5,0.8c0.8-1.2,1.6-2.5,2.4-3.8c0.1-0.1,0.5-0.1,1.1-0.2c-0.2,1.6-0.4,3-0.6,4.5
	C245.3,856.4,246.5,856.8,247.3,857.1z M254.9,103.3c0.2,0,0.5-0.1,0.7-0.1c0.4-2.1,1.8-5.3,0.9-5.9c-1.7-1.3-4.7-1.2-7.1-1.7
	c0,0.3,0,0.6,0,0.9c-1.7-1.7-3.3-3.4-4.9-5c-1.4,3.1-2.4,5.5-3.4,7.9c-0.6,1.5-1.1,3-1.6,4.5c0,0.2,1,0.6,1.5,0.8
	c0.8-1.3,1.5-2.5,2.3-3.8c0.1-0.2,0.5-0.2,1.1-0.4c-0.2,1.6-0.3,3.1-0.5,4.5c1.4,0.6,2.7,1.2,3.1,1.4c-1.3,1.6-2.4,3-4.1,5.1
	c5.3,0,9.3,0,14.2,0C256.4,108.8,255.6,106.1,254.9,103.3z M211.9,129c4.8,7.1,20.4,9.7,26.8,4.1C230.5,127.9,221.9,126.7,211.9,129
	z M238.7,634.1c-7.6-6-19.4-7.6-26.4-4C219.2,637,229.2,638.6,238.7,634.1z M239.1,383.5c-8.8-5.3-17.3-6.8-26.9-4.2
	C217.9,386.6,229.6,388.6,239.1,383.5z M212.1,879.8c6.4,7.4,18.1,9.2,26.3,4.4C232.3,878.9,222.8,877.2,212.1,879.8z M226.6,852.9
	c1.5-0.3,3.8-1.5,4.9-0.8c3.9,2.5,5.2-0.5,5.9-2.5c0.8-2.7,1.6-6.6,0.2-8.3c-1.8-2.1-5.9-2.4-8.5-3.2
	C228.1,843.6,227.4,848.1,226.6,852.9z M226.6,102.3c1.6-0.3,3.9-1.3,5-0.7c3.6,2.2,5.1-0.5,5.6-2.4c0.8-2.8,1.7-6.8,0.2-8.7
	c-1.6-2-5.9-2.3-8.3-3C228.1,93.1,227.4,97.5,226.6,102.3z M226.5,352.4c1.6-0.2,4-1.2,5.2-0.5c3.1,1.8,4.5-0.2,5-1.9
	c0.9-2.9,2.4-6.9,1-8.8c-1.6-2.2-6-2.7-8.8-3.8C228.1,343.2,227.3,347.8,226.5,352.4z M226.5,602.7c1.7-0.3,4-1.4,5-0.8
	c3.6,2.3,5-0.3,5.6-2.3c0.8-2.8,1.8-6.8,0.3-8.7c-1.6-2.1-5.9-2.3-8.4-3.1C228.1,593.5,227.4,597.9,226.5,602.7z M212.7,842.4
	c1.1,5.4,1.9,9.2,2.6,13c1.5-0.8,2.9-1.5,4.3-2.3c1.2-0.7,3-1.2,3.4-2.2c1.5-3.7,3.2-8.5-0.7-10.7
	C220,838.9,215.3,841.7,212.7,842.4z M215.3,354.9c2.5-1.2,5.7-1.8,7.2-3.7c2.8-3.3,2.4-11.6,0.1-11.5c-3.4,0.1-6.8,2.1-10.1,3.4
	c-0.2,0.1-0.2,0.5-0.4,0.8c0.3,0,0.7-0.1,1.1-0.1C213.8,347.5,214.5,351.2,215.3,354.9z M215.1,104.6c2.5-1.1,5.5-1.6,7.3-3.3
	c2.8-2.8,2.9-10.7,0.4-11.8c-4.4-2.1-7.4,1.1-10.4,3.5c-0.2,0.2-0.2,0.6-0.3,0.9c0.4,0,0.8-0.1,1.2-0.2
	C213.9,97.3,214.5,100.9,215.1,104.6z M215.1,605c2.4-1,5.5-1.6,7.2-3.3c2.8-2.7,2.9-10.6,0.4-11.8c-4.2-2.1-7.1,1.1-10.1,3.1
	c-0.3,0.2-0.5,0.8-0.7,1.2c0.4,0,0.9-0.1,1.3-0.1C213.9,597.8,214.5,601.5,215.1,605z M69.7,465.3c-4.1-4.6-3.7-8.8,0.2-13.2
	c-4.3,0.7-7.9,1.7-11.3,3.1c-0.9,0.4-1.7,2-1.6,2.9C57.8,462.4,63.8,466,69.7,465.3z M70.3,953.1c-0.3-0.3-0.6-0.7-0.9-1
	c-3.5,1.1-7.1,2.1-10.5,3.4c-0.9,0.3-2,1.5-2,2.3c-0.4,4.3,7.5,9.2,12.6,7.5C65.3,961.1,66.2,957,70.3,953.1z M69.8,715.3
	c-4.5-4.5-3.4-8.6,0-13c-4,0.6-7.6,1.6-11,3c-0.9,0.4-1.9,1.9-1.8,2.8C57.5,712.5,64,716.4,69.8,715.3z M69.4,214.8
	c-4.1-4.2-3.1-8.4,0.3-12.9c-4.1,0.7-7.7,1.7-11.2,3.1c-0.8,0.3-1.8,1.6-1.8,2.4C56.9,211.7,64.2,216.2,69.4,214.8z M213,377.2
	c12-1.7,15.8-4.3,16.7-11.6C221.4,365.1,219.9,366.1,213,377.2z M213,627.3c11.4-1.1,15.4-3.8,16.9-11.5
	C220,614.2,216.6,620.9,213,627.3z M213.1,877.5c8.6,0,14.9-3,17.2-11.4C220.1,864.4,216.6,870.9,213.1,877.5z M74.8,736
	c-7.2,2.6-8.2,7.4-9.8,13.3c4.4,0.2,8.1,0.4,11.8,0.3c0.8,0,2-1.2,2.3-2c0.2-0.4-1-1.5-1.8-2C73.8,743.4,72.5,740.6,74.8,736z
	 M213,127c8.7-0.2,15.1-3,17.2-11.5C220.1,113.7,216.6,120.4,213,127z M74.4,235.8c-6.8,2-7.6,7.1-9.6,13c4.6,0.1,8.4,0.6,12.3,0.2
	c1.8-0.2,4.2-1.9,0.9-3.6C74.1,243.3,72.7,240.4,74.4,235.8z M64.8,999.4c4.5,0.1,8.4,0.6,12.2,0.3c1.8-0.1,4.1-1.8,1-3.6
	c-3.7-2.2-5.4-5-3.7-9.2C68.9,988.4,68.1,989.4,64.8,999.4z M143.4,252.4c3.6,4.8,8.1,7.1,13.6,6.4c1.3-0.2,2.6-3.3,3.1-5.3
	c0.8-3,0.6-6.2-3.6-8.3C155.8,253.3,150.3,253.8,143.4,252.4z M143.1,502.5c3.4,4.8,7.9,6.7,13.2,6.5c1.2,0,2.7-2.3,3.4-3.8
	c1.4-3.5,1.3-6.9-2.3-9.7C153.1,502.5,153.1,502.5,143.1,502.5z M65.1,497.7c7.2,3.4,11.9,2.9,14.4-1.4c-4.5-1.9-7.3-4.8-5.2-10.2
	C67.6,488,66.9,493.1,65.1,497.7z M143.5,1003.6c3.1,4.2,7.5,6.1,12.8,5.9c1.2,0,2.7-2.3,3.3-3.8c1.4-3.5,1.2-6.9-2.1-9.5
	c-3.2,1.4-1.4,5.1-4.9,6.8C149.1,1004.8,146.6,1001.1,143.5,1003.6z M143.2,752.4c3.4,4.7,9.9,8.3,13.4,6.8c1.7-0.7,3-3.5,3.5-5.5
	c0.8-3,0.6-6.1-3.6-8.1C155.7,753.7,150.1,754.1,143.2,752.4z M127.4,89.4c-14.9-10.7-14.9-10.7-18.6-8.7c2.3,1.9,5.1,3.5,6.7,5.9
	C119,91.7,121.1,92.4,127.4,89.4z M109,831.2c2.3,2.2,5.1,4.2,6.9,6.9c2.7,4.2,6.7,5,11.1,1.6C112.5,829.3,112.5,829.3,109,831.2z
	 M110.8,329.7c1.4,2.1,3.3,4.6,4.9,7.4c2.8,4.9,6.4,5.7,11.7,2C120.9,336.5,118,327.5,110.8,329.7z M110.8,579.9
	c1.4,2.1,3.3,4.7,4.9,7.4c2.9,5,6.3,5.7,11.5,2.2C121,586.4,117.8,578,110.8,579.9z M174.1,584.4c-3.7-0.9-6.9-1.6-9.5-2.3
	c-1.8,3.9-3.2,6.7-4.5,9.6C166.9,594.3,169.5,593.1,174.1,584.4z M164.7,832.2c-1.9,4-3.2,6.9-4.5,9.8c6.8,2.4,10.7,0.5,13.5-7.5
	C170.5,833.7,167.5,833,164.7,832.2z M159.8,91.2c7.1,2.7,10.7,1,14-7.2c-3.2-0.8-6.4-1.6-9.5-2.4c-0.8,2.4-1.1,3.9-1.7,5.3
	C161.8,88.3,160.8,89.6,159.8,91.2z M160.2,341.6c6.7,2.5,10.1,0.9,13.6-7.4c-3.3-0.8-6.4-1.6-9.1-2.3
	C162.9,335.6,161.7,338.4,160.2,341.6z M114.1,594.8c-4.5-3.6-7.7-6.2-11.1-8.9c-2.7,7.1,7.1,10.7,4.9,17.6c0.6,0.1,1.2,0.1,1.9,0.2
	C111.3,600.5,112.9,597.3,114.1,594.8z M108.2,853.5c4.4-2.2,5.2-5.9,5.5-8.9c-3.9-3.1-7.2-5.7-10.6-8.4
	C100,843,110.2,846.7,108.2,853.5z M114,344.6c-4.4-3.6-7.6-6.1-11-8.9c-2.9,7,7.3,10.7,4.6,17.7c0.8,0,1.5,0,2.3,0
	C111.4,350.2,112.9,346.9,114,344.6z M102.9,85.6c-2.5,6.9,7,10.7,5,17.5c0.6,0.1,1.3,0.2,1.9,0.3c1.6-3.3,3.1-6.6,4.2-9
	C109.8,90.9,106.6,88.4,102.9,85.6z M105.3,511.4c-1.6,4.9,1,7.8,3.9,10.2c0.9,0.7,3.7,0.3,5.1-0.4c3.1-1.7,5.5-4.1,5.1-9.2
	C113.9,518.2,110,514.5,105.3,511.4z M119.6,262c-5.6,5.3-9.7,2.8-14.2-1c-1.7,4.8,0.8,7.7,3.7,10.3c0.8,0.7,3.2,0.8,4.2,0.3
	C116.8,269.8,119.7,267.4,119.6,262z M105.2,761.5c-1.4,4.8,1,7.8,3.9,10.2c0.9,0.7,3.4,0.6,4.7-0.1c3.3-1.7,5.9-4.1,5.7-9.4
	C113.9,768.2,109.8,764.9,105.2,761.5z M256.7,124.2c1-7.1-2-11-8.2-10.1c-1.7,0.2-3.2,2.5-4.7,3.9c1.2,0.9,2.3,2,3.7,2.6
	C250.4,121.9,253.4,123,256.7,124.2z M119.6,1012c-5.7,6.9-9.8,2.4-14.6-0.1c-1,4.8,1.3,7.8,4.3,10.2c0.8,0.7,3.2,0.4,4.3-0.2
	C117,1020.2,119.6,1017.8,119.6,1012z M256.6,874.8c1.3-6.8-1.9-11-8.4-10c-1.6,0.2-3,2.4-4.5,3.6c1.2,1,2.2,2.2,3.5,2.8
	C250.2,872.5,253.2,873.5,256.6,874.8z M256.7,374.4c1-7.1-2.3-11.2-8.6-10.1c-1.6,0.3-2.9,2.4-4.4,3.7c1.2,0.9,2.3,2.1,3.7,2.7
	C250.3,372.1,253.4,373.2,256.7,374.4z M256.6,624.6c1.3-6.8-1.5-10.7-7.8-10.1c-1.8,0.2-3.3,2.4-5,3.6c1.3,1,2.5,2.2,4,2.9
	C250.5,622.3,253.4,623.3,256.6,624.6z M114.9,341.4c-0.5-5.9-3-8-9-8.2C106.5,338.7,108.3,340.4,114.9,341.4z M115.1,591.4
	c-1.1-5.9-3.1-7.6-9.1-8.1C106.2,588.8,108.5,591,115.1,591.4z M115,91.1c-1-6-3.7-8.3-9.3-7.9C106.8,88.9,108.6,90.4,115,91.1z
	 M105.8,833.2c0.6,6.1,3,8.2,9,8.3C114.4,836.2,112.6,834.5,105.8,833.2z M100,466.2c0.3,0.6,0.7,1.3,1,1.9c3.5-0.9,6.9-1.8,11-2.9
	c-1.6-2.3-2.4-3.6-3.7-5.5C105.3,462.1,102.6,464.2,100,466.2z M108.6,709.7c-3.3,2.6-6,4.8-8.6,6.9c0.4,0.6,0.8,1.2,1.2,1.9
	c3.4-1,6.9-2,10.7-3.1C110.6,713.2,110,712,108.6,709.7z M108.6,959.9c-3.3,2.6-6,4.8-8.6,6.9c0.4,0.6,0.8,1.2,1.2,1.9
	c3.4-1,6.9-1.9,10.7-3C110.6,963.5,110,962.3,108.6,959.9z M108.5,209.4c-3.2,2.5-5.9,4.5-8.5,6.6c0.3,0.6,0.7,1.3,1.1,1.9
	c3.5-0.9,6.9-1.8,10.9-2.9C110.6,212.7,109.9,211.6,108.5,209.4z M108,702.4c-3.7,1.6-6.4,2.8-9.1,4c0.1,0.6,0.1,1.2,0.2,1.8
	c3,0.4,6,0.8,9.5,1.2C108.4,706.8,108.3,705.3,108,702.4z M98.9,206c0.1,0.6,0.2,1.3,0.3,1.9c3,0.3,6,0.7,9.4,1.1
	c-0.3-2.7-0.4-4.2-0.7-6.8C104.5,203.6,101.7,204.8,98.9,206z M108.8,959.8c-0.4-3-0.7-4.6-1.1-7.2c-3.5,1.7-6.2,2.9-8.8,4.1
	c0.1,0.6,0.2,1.1,0.3,1.7C102.1,958.8,105,959.3,108.8,959.8z M108,452c-3.8,1.8-6.4,3.1-9.1,4.4c0.1,0.6,0.3,1.2,0.4,1.7
	c2.9,0.3,5.9,0.6,9.2,0.9C108.4,456.6,108.3,455.1,108,452z M132.4,729.3c0.6-0.2,1.2-0.5,1.8-0.7c-0.4-2.2-0.5-4.5-1.3-6.5
	c-0.3-0.8-2.2-1-3.4-1.5c-0.4,1.1-1.4,2.5-1.1,3.3C129.5,725.8,131.1,727.5,132.4,729.3z M132.4,979.5c0.7-0.3,1.3-0.5,2-0.8
	c-0.5-2.3-0.9-4.7-1.8-6.9c-0.2-0.6-2.3-1.2-3.1-0.9s-1.6,2.1-1.3,2.8C129.4,975.8,131,977.6,132.4,979.5z M132.4,228.9
	c0.7-0.3,1.3-0.5,2-0.8c-0.5-2.3-0.9-4.7-1.8-6.9c-0.2-0.6-2.3-1.2-3.1-0.8c-0.8,0.3-1.6,2.1-1.3,2.8
	C129.4,225.1,131,227,132.4,228.9z M132.4,479.1c0.6-0.2,1.2-0.4,1.9-0.7c-0.4-2.2-0.5-4.5-1.3-6.5c-0.3-0.8-2.2-1-3.4-1.5
	c-0.4,1.1-1.5,2.5-1.1,3.3C129.4,475.6,131,477.3,132.4,479.1z"/>
</svg>
