<?xml version="1.0" encoding="iso-8859-1"?>
<!-- Uploaded to: SVG Repo, www.svgrepo.com, Generator: SVG Repo Mixer Tools -->
<svg fill="#000000" height="800px" width="800px" version="1.1" id="Capa_1" xmlns="http://www.w3.org/2000/svg" xmlns:xlink="http://www.w3.org/1999/xlink" 
	 viewBox="0 0 60 60" xml:space="preserve">
<g>
	<path d="M60,12V0H48v2H12V0H0v12h2v43H0v5h12v-5h-2v-6h1v2h18V14h-3.551l-1.206,1.905c-1.09,0.587-2.037,1.042-3.031,1.344
		c-1.481,0.45-2.544,1.387-3.073,2.708C17.644,21.198,16.458,22,15.122,22H11v2h-1V12h2v-2h36v2h2v12h-1v-2h-3.122
		c-1.337,0-2.522-0.802-3.019-2.043c-0.529-1.321-1.591-2.257-3.073-2.708c-0.994-0.302-1.94-0.757-3.031-1.344L35.551,14H32v37h17
		v-2h1v6h-2v5h12v-5h-2V12H60z M16,26h8c0.552,0,1,0.448,1,1s-0.448,1-1,1h-8c-0.552,0-1-0.448-1-1S15.448,26,16,26z M16,29h8
		c0.552,0,1,0.448,1,1s-0.448,1-1,1h-8c-0.552,0-1-0.448-1-1S15.448,29,16,29z M16,32h8c0.552,0,1,0.448,1,1s-0.448,1-1,1h-8
		c-0.552,0-1-0.448-1-1S15.448,32,16,32z M16,39h8c0.552,0,1,0.448,1,1s-0.448,1-1,1h-8c-0.552,0-1-0.448-1-1S15.448,39,16,39z
		 M16,42h8c0.552,0,1,0.448,1,1s-0.448,1-1,1h-8c-0.552,0-1-0.448-1-1S15.448,42,16,42z M16,45h8c0.552,0,1,0.448,1,1s-0.448,1-1,1
		h-8c-0.552,0-1-0.448-1-1S15.448,45,16,45z M10,58H2v-1h8V58z M11,47h-1H7v-2h3h1V47z M11,43h-1V30h1V43z M11,26v2h-1H7v-2h3H11z
		 M10,10H2V2h8V10z M45,47h-8c-0.552,0-1-0.448-1-1s0.448-1,1-1h8c0.552,0,1,0.448,1,1S45.552,47,45,47z M45,44h-8
		c-0.552,0-1-0.448-1-1s0.448-1,1-1h8c0.552,0,1,0.448,1,1S45.552,44,45,44z M45,41h-8c-0.552,0-1-0.448-1-1s0.448-1,1-1h8
		c0.552,0,1,0.448,1,1S45.552,41,45,41z M45,34h-8c-0.552,0-1-0.448-1-1s0.448-1,1-1h8c0.552,0,1,0.448,1,1S45.552,34,45,34z M45,31
		h-8c-0.552,0-1-0.448-1-1s0.448-1,1-1h8c0.552,0,1,0.448,1,1S45.552,31,45,31z M45,28h-8c-0.552,0-1-0.448-1-1s0.448-1,1-1h8
		c0.552,0,1,0.448,1,1S45.552,28,45,28z M49,26h1h3v2h-3h-1V26z M49,30h1v13h-1V30z M49,47v-2h1h3v2h-3H49z M58,58h-8v-1h8V58z
		 M50,10V2h8v8H50z"/>
</g>
</svg>