<?xml version="1.0" encoding="utf-8"?>
<!-- Generator: Adobe Illustrator 24.2.3, SVG Export Plug-In . SVG Version: 6.00 Build 0)  -->
<svg version="1.1" id="Capa_1" xmlns="http://www.w3.org/2000/svg" xmlns:xlink="http://www.w3.org/1999/xlink" x="0px" y="0px"
	 viewBox="0 0 800 800" style="enable-background:new 0 0 800 800;" xml:space="preserve">
<path d="M399,208c37,0,66.7-30,66.7-66.7c0-12.7-3.3-24.3-9.7-34.3L399,8l-57,99c-6.3,10-9.7,21.7-9.7,34.3
	C332.3,178,362.3,208,399,208z M552.3,541l-35.7-35.7l-36,35.7c-43.3,43.3-119.3,43.7-163,0L282,505.3L245.7,541
	c-21.7,21.7-50.7,33.7-81.3,33.7c-24.3,0-46.7-7.7-65.3-20.3V708c0,18.3,15,33.3,33.3,33.3h533.3c18.3,0,33.3-15,33.3-33.3V554.3
	c-18.7,12.7-41,20.3-65.3,20.3C603,574.7,574,562.7,552.3,541z M599,308H432.3v-66.7h-66.7V308H199c-55.3,0-100,44.7-100,100v51.3
	c0,36,29.3,65.3,65.3,65.3c17.3,0,34-6.7,46-19l71.3-71l71,71c24.7,24.7,67.7,24.7,92.3,0l71.3-71l71,71c12.3,12.3,28.7,19,46,19
	c36,0,65.3-29.3,65.3-65.3V408C699,352.7,654.3,308,599,308z"/>
</svg>
